<svg xmlns="http://www.w3.org/2000/svg" viewBox="0 0 90 90" shape-rendering="crispEdges" width="512" height="512"><style>svg {width: 100%;height: 100%;margin: 0;padding: 0;overflow: hidden;display: flex;justify-content: center;background:#12221F;}</style><rect width="90" height="90" fill="#12221F"/><path fill="#AFF2E2" d="M18.021 60.531c0-.55.041-1.068.123-1.553.087-.488.202-.937.346-1.347.145-.414.313-.791.504-1.131.195-.34.4-.64.615-.902.215-.262.436-.483.662-.663.231-.183.454-.324.668-.421l.317.89a3.654 3.654 0 0 0-.656.68 4.59 4.59 0 0 0-.592 1.055 7.816 7.816 0 0 0-.422 1.464c-.11.56-.164 1.198-.164 1.916v.153c0 .723.055 1.363.164 1.922.11.558.25 1.047.422 1.465.176.422.373.775.592 1.06.218.285.437.512.656.68l-.317.879a3.233 3.233 0 0 1-.668-.422 4.66 4.66 0 0 1-.662-.668 6.31 6.31 0 0 1-.615-.897 7.093 7.093 0 0 1-.504-1.125 8.713 8.713 0 0 1-.345-1.347 9.344 9.344 0 0 1-.123-1.559v-.129Zm7.659 2.526c0-.153.025-.293.076-.422a.92.92 0 0 1 .223-.34 1.01 1.01 0 0 1 .357-.229c.14-.058.299-.088.475-.088.175 0 .334.03.474.088.14.055.258.131.352.229a.92.92 0 0 1 .222.34c.055.129.082.27.082.422 0 .148-.027.287-.082.416a.987.987 0 0 1-.222.34 1.019 1.019 0 0 1-.352.222c-.14.055-.299.082-.474.082-.176 0-.334-.027-.475-.082a1.07 1.07 0 0 1-.357-.222.987.987 0 0 1-.223-.34 1.125 1.125 0 0 1-.076-.416Zm5.677-3.944v-1.576l5.274 2.145v1.33l-5.274 2.15V61.58l3.358-1.125.357-.117-.351-.117-3.364-1.108Zm12.475 6.159h-5.344V64h5.344v1.272Zm7.208 0h-5.345V64h5.344v1.272Zm3.884-5.063-.399.146.399.141 3.21 1.072v1.588l-5.185-2.15v-1.319l5.186-2.15v1.582l-3.211 1.09Zm6.791 2.848c0-.153.025-.293.076-.422a.92.92 0 0 1 .223-.34 1.01 1.01 0 0 1 .357-.229c.14-.058.299-.088.475-.088s.334.03.474.088c.14.055.258.131.352.229a.92.92 0 0 1 .223.34c.054.129.082.27.082.422 0 .148-.028.287-.082.416a.987.987 0 0 1-.223.34 1.005 1.005 0 0 1-.352.222c-.14.055-.298.082-.474.082s-.334-.027-.475-.082a1.068 1.068 0 0 1-.357-.222.987.987 0 0 1-.223-.34 1.125 1.125 0 0 1-.076-.416Zm9.896-2.397a8.64 8.64 0 0 1-.129 1.524 8.338 8.338 0 0 1-.351 1.336 6.713 6.713 0 0 1-.522 1.13 6.145 6.145 0 0 1-.627.914c-.222.27-.45.499-.685.686a3.11 3.11 0 0 1-.686.428l-.31-.88a3.56 3.56 0 0 0 .65-.673c.219-.285.416-.637.592-1.055.176-.418.318-.908.428-1.47.11-.563.164-1.206.164-1.928v-.152c0-.72-.057-1.36-.17-1.922a7.913 7.913 0 0 0-.434-1.477 4.723 4.723 0 0 0-.592-1.06 3.572 3.572 0 0 0-.638-.674l.31-.873c.223.097.451.24.686.427.234.188.463.416.685.686.223.266.432.57.627.914.2.34.373.717.522 1.13a8.54 8.54 0 0 1 .48 2.86v.13Z"/><path fill="#AFF2E2" d="M40.022 17.271h-5.344V16h5.344v1.271Zm7.206 0h-5.343V16h5.343v1.271Zm7.207 0h-5.343V16h5.343v1.271ZM26.604 28v-6h12v6h-12Z"/><path fill="#AFF2E2" d="M38.603 28v-6h12v6h-12Zm12 0v-6h12v6h-12Z"/><path fill="#AFF2E2" d="M25.021 36.531c0-.55.041-1.068.123-1.553.087-.488.202-.937.346-1.347.145-.414.313-.791.504-1.131.195-.34.4-.64.615-.902a4.4 4.4 0 0 1 .662-.662 3.23 3.23 0 0 1 .668-.422l.317.89a3.654 3.654 0 0 0-.656.68 4.59 4.59 0 0 0-.592 1.055 7.816 7.816 0 0 0-.422 1.464c-.11.56-.164 1.198-.164 1.916v.153c0 .723.055 1.363.164 1.922.11.558.25 1.047.422 1.465.176.422.373.775.592 1.06.218.285.437.512.656.68l-.317.879a3.233 3.233 0 0 1-.668-.422 4.66 4.66 0 0 1-.662-.668 6.31 6.31 0 0 1-.615-.897 7.093 7.093 0 0 1-.504-1.125 8.713 8.713 0 0 1-.345-1.347 9.344 9.344 0 0 1-.123-1.559v-.129Zm8.913-.891 1.394-1.98h1.752l-2.127 3.112L37.156 40h-1.758l-1.459-2.074L32.492 40H30.73l2.203-3.228-2.122-3.112h1.753l1.37 1.98Zm5.953 3.417c0-.153.025-.293.076-.422a.92.92 0 0 1 .222-.34c.098-.098.217-.174.358-.229.14-.058.299-.088.475-.088.175 0 .334.03.474.088.14.055.258.131.352.229a.92.92 0 0 1 .222.34c.055.129.082.27.082.422 0 .148-.027.287-.082.416a.989.989 0 0 1-.222.34 1.005 1.005 0 0 1-.352.222c-.14.055-.299.082-.474.082-.176 0-.334-.027-.475-.082a1.069 1.069 0 0 1-.358-.222.989.989 0 0 1-.222-.34 1.125 1.125 0 0 1-.076-.416Zm7.207 0c0-.153.025-.293.076-.422a.92.92 0 0 1 .223-.34 1.01 1.01 0 0 1 .357-.229c.14-.058.299-.088.475-.088.175 0 .334.03.474.088.14.055.258.131.352.229a.92.92 0 0 1 .222.34c.055.129.082.27.082.422 0 .148-.027.287-.082.416a.987.987 0 0 1-.222.34 1.005 1.005 0 0 1-.352.222c-.14.055-.299.082-.474.082-.176 0-.334-.027-.475-.082a1.068 1.068 0 0 1-.357-.222.987.987 0 0 1-.223-.34 1.125 1.125 0 0 1-.076-.416Zm8.461-3.417 1.394-1.98h1.752l-2.127 3.112L58.777 40H57.02l-1.459-2.074L54.113 40H52.35l2.203-3.228-2.121-3.112h1.752l1.37 1.98Zm8.642 1.02a8.348 8.348 0 0 1-.48 2.86 6.706 6.706 0 0 1-.522 1.13 6.152 6.152 0 0 1-.627.915c-.222.269-.45.498-.685.685-.235.188-.463.33-.686.428l-.31-.88a3.56 3.56 0 0 0 .65-.673 4.76 4.76 0 0 0 .592-1.055c.176-.418.318-.908.428-1.47.109-.563.164-1.206.164-1.928v-.152c0-.72-.057-1.36-.17-1.922a7.92 7.92 0 0 0-.434-1.477 4.727 4.727 0 0 0-.592-1.06 3.57 3.57 0 0 0-.638-.674l.31-.873c.223.097.451.24.686.427.234.188.463.416.685.686.223.266.432.57.627.914.2.34.373.717.522 1.13a8.55 8.55 0 0 1 .48 2.86v.13Z"/><path fill="#AFF2E2" d="M15.021 48.531c0-.55.041-1.068.123-1.553.086-.488.202-.937.346-1.347.145-.414.313-.791.504-1.131.195-.34.4-.64.615-.902.215-.262.436-.483.662-.663.231-.183.454-.324.668-.421l.317.89a3.654 3.654 0 0 0-.656.68 4.59 4.59 0 0 0-.592 1.055 7.816 7.816 0 0 0-.422 1.464c-.11.56-.164 1.198-.164 1.916v.153c0 .723.055 1.363.164 1.922.11.558.25 1.047.422 1.465.176.422.373.775.592 1.06.218.285.437.512.656.68l-.317.879a3.233 3.233 0 0 1-.668-.422 4.66 4.66 0 0 1-.662-.668 6.31 6.31 0 0 1-.615-.897 7.093 7.093 0 0 1-.504-1.125 8.713 8.713 0 0 1-.345-1.347 9.344 9.344 0 0 1-.123-1.559v-.129Zm12.042-1.353a6.917 6.917 0 0 1-.123 1.095c-.07.36-.176.684-.317.973a2.046 2.046 0 0 1-.527.697 1.183 1.183 0 0 1-.774.264c-.199 0-.38-.049-.545-.147a1.06 1.06 0 0 1-.38-.433 1.479 1.479 0 0 1-.44.416 1.005 1.005 0 0 1-.539.152c-.234 0-.44-.052-.615-.158a1.192 1.192 0 0 1-.428-.451c-.11-.2-.186-.438-.229-.715a4.018 4.018 0 0 1-.011-.926 5.02 5.02 0 0 1 .228-1.078 2.91 2.91 0 0 1 .434-.82 1.81 1.81 0 0 1 .621-.527 1.69 1.69 0 0 1 .803-.188c.304 0 .552.045.744.135a1.7 1.7 0 0 1 .474.31l-.252 3.088a1.1 1.1 0 0 0 .006.264c.016.062.037.11.065.14a.208.208 0 0 0 .105.06.596.596 0 0 0 .117.01c.102 0 .194-.052.276-.157.086-.106.16-.252.223-.44a3.45 3.45 0 0 0 .14-.668c.035-.261.053-.547.053-.855a4.576 4.576 0 0 0-.106-1.237 2.169 2.169 0 0 0-.392-.867 1.627 1.627 0 0 0-.674-.504 2.473 2.473 0 0 0-.932-.164c-.398 0-.758.09-1.078.27a2.478 2.478 0 0 0-.814.738 3.83 3.83 0 0 0-.528 1.13c-.128.434-.2.911-.216 1.43-.02.524.015.981.105 1.372.094.39.236.716.428.978.195.258.44.451.732.58.297.13.637.194 1.02.194a3.757 3.757 0 0 0 .75-.088c.125-.032.242-.067.351-.106.114-.039.215-.082.305-.129l.188.791a1.672 1.672 0 0 1-.352.194 3.16 3.16 0 0 1-.41.14c-.145.036-.29.061-.434.077-.144.02-.283.029-.416.029-.57 0-1.062-.094-1.476-.281a2.667 2.667 0 0 1-1.026-.803 3.388 3.388 0 0 1-.591-1.266 6.31 6.31 0 0 1-.153-1.681c.02-.618.121-1.198.305-1.74a4.737 4.737 0 0 1 .762-1.419 3.581 3.581 0 0 1 1.148-.955 3.063 3.063 0 0 1 1.459-.351c.46 0 .877.088 1.248.264.371.171.684.417.938.738.257.316.45.697.58 1.142.128.446.185.94.17 1.483Zm-3.915.767c-.023.45.012.787.106 1.014.098.226.242.34.433.34a.66.66 0 0 0 .288-.07.79.79 0 0 0 .28-.288v-.035a.171.171 0 0 0 .007-.04l.222-2.62a.926.926 0 0 0-.181-.018.889.889 0 0 0-.791.44c-.184.293-.305.719-.364 1.277Zm9.428.715a8.348 8.348 0 0 1-.48 2.86 6.706 6.706 0 0 1-.522 1.13 6.152 6.152 0 0 1-.627.915c-.222.269-.45.498-.685.685-.235.188-.463.33-.686.428l-.31-.88a3.56 3.56 0 0 0 .65-.673 4.76 4.76 0 0 0 .592-1.055c.176-.418.318-.908.428-1.47.109-.563.164-1.206.164-1.928v-.152c0-.72-.057-1.36-.17-1.922a7.92 7.92 0 0 0-.434-1.477 4.727 4.727 0 0 0-.592-1.06 3.566 3.566 0 0 0-.638-.674l.31-.873c.223.097.451.24.686.427.234.188.463.416.685.686.223.266.432.57.627.914.2.34.373.717.522 1.13a8.55 8.55 0 0 1 .48 2.86v.13Zm2.045-.344v-.6h10.056v.6H34.621Z"/><path fill="#AFF2E2" d="M44.676 48.316v-.6h10.056v.6H44.676Zm12.076.215c0-.55.041-1.068.123-1.553.086-.488.201-.937.346-1.347a7 7 0 0 1 .504-1.131c.195-.34.4-.64.615-.902a4.41 4.41 0 0 1 .662-.663c.23-.183.453-.324.668-.421l.316.89a3.654 3.654 0 0 0-.656.68 4.586 4.586 0 0 0-.592 1.055 7.816 7.816 0 0 0-.422 1.464c-.109.56-.164 1.198-.164 1.916v.153c0 .723.055 1.363.164 1.922.11.558.25 1.047.422 1.465.176.422.373.775.592 1.06.219.285.438.512.656.68l-.316.879a3.233 3.233 0 0 1-.668-.422 4.665 4.665 0 0 1-.662-.668 6.31 6.31 0 0 1-.615-.897 7.084 7.084 0 0 1-.504-1.125 8.701 8.701 0 0 1-.346-1.347 9.344 9.344 0 0 1-.123-1.559v-.129Zm12.041-1.353a6.929 6.929 0 0 1-.123 1.095c-.07.36-.176.684-.317.973a2.046 2.046 0 0 1-.527.697 1.183 1.183 0 0 1-.773.264c-.2 0-.381-.049-.545-.147a1.06 1.06 0 0 1-.381-.433 1.479 1.479 0 0 1-.44.416 1.005 1.005 0 0 1-.539.152c-.234 0-.439-.052-.615-.158a1.19 1.19 0 0 1-.427-.451c-.11-.2-.186-.438-.229-.715a4.023 4.023 0 0 1-.012-.926c.043-.398.12-.758.229-1.078a2.91 2.91 0 0 1 .433-.82 1.81 1.81 0 0 1 .621-.527c.239-.126.506-.188.803-.188.305 0 .553.045.744.135.196.09.354.193.475.31l-.252 3.088c-.008.113-.006.201.006.264.015.062.037.11.064.14a.21.21 0 0 0 .106.06.596.596 0 0 0 .117.01c.102 0 .193-.052.275-.157.086-.106.16-.252.223-.44.063-.187.11-.41.14-.668.036-.261.053-.547.053-.855a4.573 4.573 0 0 0-.105-1.237 2.17 2.17 0 0 0-.393-.867 1.627 1.627 0 0 0-.673-.504 2.473 2.473 0 0 0-.932-.164c-.399 0-.758.09-1.078.27a2.48 2.48 0 0 0-.815.738 3.832 3.832 0 0 0-.527 1.13 5.619 5.619 0 0 0-.217 1.43c-.02.524.016.981.106 1.372.093.39.236.716.427.978.196.258.44.451.733.58.297.13.636.194 1.02.194a3.757 3.757 0 0 0 .75-.088c.124-.032.241-.067.35-.106.114-.039.216-.082.305-.129l.188.791a1.672 1.672 0 0 1-.352.194 3.171 3.171 0 0 1-.41.14 3.35 3.35 0 0 1-.433.077c-.145.02-.284.029-.416.029-.57 0-1.063-.094-1.477-.281a2.668 2.668 0 0 1-1.025-.803 3.39 3.39 0 0 1-.592-1.266 6.31 6.31 0 0 1-.152-1.681c.02-.618.12-1.198.304-1.74a4.737 4.737 0 0 1 .762-1.419 3.58 3.58 0 0 1 1.148-.955 3.063 3.063 0 0 1 1.46-.351c.46 0 .876.088 1.248.264.37.171.683.417.937.738.258.316.451.697.58 1.142.129.446.186.94.17 1.483Zm-3.914.767c-.023.45.012.787.105 1.014.098.226.243.34.434.34a.66.66 0 0 0 .287-.07.79.79 0 0 0 .281-.288v-.035a.172.172 0 0 0 .006-.04l.223-2.62a.925.925 0 0 0-.182-.018.889.889 0 0 0-.79.44c-.184.293-.305.719-.364 1.277Zm9.428.715a8.64 8.64 0 0 1-.13 1.524 8.338 8.338 0 0 1-.35 1.336 6.713 6.713 0 0 1-.522 1.13 6.145 6.145 0 0 1-.627.915 4.716 4.716 0 0 1-.686.685 3.11 3.11 0 0 1-.685.428l-.31-.88c.214-.163.43-.388.65-.673.218-.285.415-.637.591-1.055.176-.418.319-.908.428-1.47.11-.563.164-1.206.164-1.928v-.152a9.8 9.8 0 0 0-.17-1.922 7.928 7.928 0 0 0-.433-1.477 4.727 4.727 0 0 0-.592-1.06 3.572 3.572 0 0 0-.639-.674l.31-.873c.223.097.452.24.686.427.235.188.463.416.686.686.222.266.431.57.627.914.199.34.373.717.521 1.13a8.54 8.54 0 0 1 .48 2.86v.13Z"/><path fill="#AFF2E2" d="M17.5 69.716v-.6h10.056v.6H17.5Zm0 1.2v-.6h10.056v.6H17.5Z"/><path fill="#AFF2E2" d="M27.555 69.716v-.6H37.61v.6H27.555Zm0 1.2v-.6H37.61v.6H27.555Zm24.468-1.2v-.6H62.08v.6H52.023Zm0 1.2v-.6H62.08v.6H52.023Z"/><path fill="#AFF2E2" d="M62.078 69.716v-.6h10.056v.6H62.078Zm0 1.2v-.6h10.056v.6H62.078Z"/></svg>